<svg width="32" height="32" viewBox="0 0 32 32" fill="none" xmlns="http://www.w3.org/2000/svg">
<path fill-rule="evenodd" clip-rule="evenodd" d="M11.9724 6.26758H19.959C23.2048 6.26758 25.8454 8.90823 25.8454 12.154V20.1406C25.8454 23.3864 23.2048 26.0271 19.959 26.0271H11.9724C8.72659 26.0271 6.08594 23.3864 6.08594 20.1406V12.154C6.08594 8.90823 8.72659 6.26758 11.9724 6.26758ZM19.9589 24.0403C22.1121 24.0403 23.8576 22.2948 23.8576 20.1416V12.1551C23.8576 10.0019 22.1121 8.25641 19.9589 8.25641H11.9723C9.81918 8.25641 8.07367 10.0019 8.07367 12.1551V20.1416C8.07367 22.2948 9.81918 24.0403 11.9723 24.0403H19.9589Z" fill="#333333"/>
<path fill-rule="evenodd" clip-rule="evenodd" d="M10.8549 16.1486C10.8549 13.3307 13.1475 11.0381 15.9654 11.0381C18.7834 11.0381 21.0759 13.3306 21.0759 16.1486C21.0759 18.9665 18.7834 21.2591 15.9654 21.2591C13.1475 21.2591 10.8549 18.9665 10.8549 16.1486ZM12.8427 16.1486C12.8427 17.8733 14.2408 19.2713 15.9654 19.2713C17.69 19.2713 19.0881 17.8732 19.0881 16.1486C19.0881 14.424 17.6901 13.0259 15.9654 13.0259C14.2408 13.0259 12.8427 14.424 12.8427 16.1486Z" fill="#333333"/>
<path d="M21.084 12.3005C21.7603 12.3005 22.3085 11.7522 22.3085 11.0759C22.3085 10.3996 21.7603 9.85132 21.084 9.85132C20.4076 9.85132 19.8594 10.3996 19.8594 11.0759C19.8594 11.7522 20.4076 12.3005 21.084 12.3005Z" fill="#333333"/>
</svg>
