<svg width="32" height="32" viewBox="0 0 32 32" fill="none" xmlns="http://www.w3.org/2000/svg">
<path fill-rule="evenodd" clip-rule="evenodd" d="M15.3955 23.0177H16.6513C16.6513 23.0177 17.0306 22.976 17.2243 22.7673C17.4025 22.5756 17.3968 22.2156 17.3968 22.2156C17.3968 22.2156 17.3723 20.5306 18.1543 20.2825C18.9253 20.038 19.9153 21.911 20.9646 22.6312C21.758 23.1762 22.361 23.0567 22.361 23.0567L25.1666 23.0177C25.1666 23.0177 26.6344 22.9273 25.9384 21.7733C25.8814 21.6789 25.5331 20.9196 23.8524 19.3595C22.0932 17.7266 22.3288 17.9908 24.4479 15.1663C25.7385 13.4461 26.2545 12.396 26.0933 11.9462C25.9396 11.5178 24.9904 11.631 24.9904 11.631L21.8313 11.6507C21.8313 11.6507 21.5972 11.6188 21.4235 11.7226C21.2538 11.8244 21.1445 12.0617 21.1445 12.0617C21.1445 12.0617 20.6446 13.3928 19.9777 14.5248C18.571 16.9135 18.0086 17.0396 17.7787 16.8912C17.2439 16.5456 17.3774 15.5025 17.3774 14.7615C17.3774 12.4467 17.7285 11.4816 16.6938 11.2317C16.3504 11.1487 16.0977 11.094 15.2195 11.0851C14.0923 11.0734 13.1383 11.0885 12.5981 11.3532C12.2387 11.5292 11.9615 11.9214 12.1303 11.9439C12.3391 11.9719 12.812 12.0714 13.0627 12.4128C13.3864 12.8532 13.375 13.8423 13.375 13.8423C13.375 13.8423 13.561 16.5672 12.9406 16.9058C12.5148 17.138 11.9307 16.6639 10.6766 14.4969C10.034 13.3868 9.54883 12.1598 9.54883 12.1598C9.54883 12.1598 9.45528 11.9305 9.28843 11.8079C9.08593 11.6593 8.80299 11.6119 8.80299 11.6119L5.8011 11.6316C5.8011 11.6316 5.35046 11.6441 5.18504 11.8401C5.03787 12.0144 5.17335 12.3749 5.17335 12.3749C5.17335 12.3749 7.52352 17.8732 10.1846 20.6441C12.6246 23.1845 15.3955 23.0177 15.3955 23.0177Z" fill="#333333"/>
</svg>
