<svg width="87" height="60" viewBox="0 0 87 60" fill="none" xmlns="http://www.w3.org/2000/svg">
<g clip-path="url(#clip0_1_81)">
<path d="M85.6927 29.6313L80.6815 23.1788L72.5698 7.03911C72.067 6.03352 71.0447 5.41341 69.9218 5.41341H58.6424V2.94972C58.6424 1.32402 57.3184 0 55.6927 0H10.6089C8.98323 0 7.65921 1.32402 7.65921 2.94972C7.65921 4.57542 8.98323 5.89944 10.6089 5.89944H52.7262V24.5698C52.7262 26.1955 54.0503 27.5196 55.676 27.5196H76.5921L80.3966 32.4302V46.0391H75.7542C74.4637 41.1955 70.0894 37.8436 65.0614 37.8436C60.0335 37.8436 55.6592 41.2123 54.3687 46.0391H38.7989C37.5084 41.1955 33.1341 37.8436 28.1061 37.8436C23.0782 37.8436 18.7039 41.2123 17.4134 46.0391H10.6089C8.98323 46.0391 7.65921 47.3631 7.65921 48.9888C7.65921 50.6145 8.98323 51.9385 10.6089 51.9385H17.4637C18.8212 56.6648 23.162 59.9665 28.1061 59.9665C33.0503 59.9665 37.391 56.6816 38.7486 51.9385H54.419C55.7765 56.6648 60.1173 59.9665 65.0614 59.9665C70.0056 59.9665 74.3463 56.6816 75.7039 51.9385H83.3631C84.9888 51.9385 86.3128 50.6145 86.3128 48.9888V31.4413C86.3128 30.7877 86.0949 30.1341 85.6927 29.6313ZM73.2905 21.6369H58.6424V11.3128H68.1117L73.2905 21.6369ZM70.2234 48.9218C70.2234 51.771 67.9106 54.0838 65.0614 54.0838C62.2123 54.0838 59.8994 51.771 59.8994 48.9218C59.8994 46.0726 62.2123 43.7598 65.0614 43.7598C67.9106 43.7765 70.2234 46.0894 70.2234 48.9218ZM33.2681 48.9218C33.2681 51.771 30.9553 54.0838 28.1061 54.0838C25.257 54.0838 22.9441 51.771 22.9441 48.9218C22.9441 46.0726 25.257 43.7598 28.1061 43.7598C30.9553 43.7765 33.2681 46.0894 33.2681 48.9218Z" fill="#02AC8F"/>
<path d="M22.7598 35.3128C22.7598 34.5251 22.4581 33.7877 21.8883 33.2178C21.3352 32.6647 20.581 32.3463 19.7933 32.3463H7.3743C5.7486 32.3463 4.42458 33.6703 4.42458 35.296C4.42458 36.9217 5.7486 38.2458 7.3743 38.2458H19.8101C21.4358 38.2625 22.7598 36.9385 22.7598 35.3128Z" fill="#02AC8F"/>
<path d="M28.9777 24.6704C28.9777 23.0447 27.6536 21.7207 26.0279 21.7207H2.94972C1.32402 21.7207 0 23.0447 0 24.6704C0 26.2961 1.32402 27.6202 2.94972 27.6202H26.0279C27.6536 27.6369 28.9777 26.3129 28.9777 24.6704Z" fill="#02AC8F"/>
<path d="M7.3743 16.9945H30.4525C32.0782 16.9945 33.4022 15.6705 33.4022 14.0448C33.4022 13.257 33.1006 12.5196 32.5307 11.9498C31.9777 11.3967 31.2235 11.0783 30.4358 11.0783H7.3743C5.7486 11.0783 4.42458 12.4023 4.42458 14.028C4.42458 15.6705 5.7486 16.9945 7.3743 16.9945Z" fill="#02AC8F"/>
</g>
<defs>
<clipPath id="clip0_1_81">
<rect width="86.3128" height="60" fill="white"/>
</clipPath>
</defs>
</svg>
