<svg width="22" height="22" viewBox="0 0 22 22" fill="none" xmlns="http://www.w3.org/2000/svg">
<path d="M10.7417 2.718L13.2352 7.76958C13.2669 7.83371 13.3281 7.87819 13.3988 7.88853L18.9753 8.70361L14.9404 12.6336C14.8891 12.6835 14.8657 12.7556 14.8778 12.8262L15.83 18.3779L10.843 15.7553C10.7796 15.722 10.7039 15.722 10.6405 15.7553L5.65351 18.3779L6.6057 12.8262C6.6178 12.7556 6.59438 12.6835 6.54308 12.6336L2.5082 8.70361L8.08463 7.88853C8.1554 7.87819 8.21656 7.83371 8.24822 7.76958L10.7417 2.718Z" stroke="#161618" stroke-width="0.435043" stroke-linecap="round" stroke-linejoin="round"/>
<path d="M10.7417 15.9478L10.7417 2.22656L8.05317 7.6733L2.04088 8.55208L6.3913 12.7894L5.3646 18.7756L10.7417 15.9478Z" fill="#161618"/>
</svg>
